<svg id="ai-c1-pic02" xmlns="http://www.w3.org/2000/svg" width="116" height="116" viewBox="0 0 116 116">
  <defs>
    <style>
      .cls-1 {
        fill: #e1e9ff;
      }

      .cls-1, .cls-2 {
        fill-rule: evenodd;
      }

      .cls-2 {
        fill: #3a5ee2;
      }
    </style>
  </defs>
  <path id="形状_526" data-name="形状 526" class="cls-1" d="M633.951,1829.08a51.733,51.733,0,0,0-18.852-58.71,50.609,50.609,0,0,0-13.021-6.73,16.667,16.667,0,0,0-33.27,0,50.714,50.714,0,0,0-12.747,6.53,51.858,51.858,0,0,0-19.246,58.55,16.8,16.8,0,0,0,10.014,30.19,16.6,16.6,0,0,0,10.232-3.54,50.969,50.969,0,0,0,56.453.2,16.558,16.558,0,0,0,9.949,3.34A16.795,16.795,0,0,0,633.951,1829.08Zm-10.469,21.99a8.94,8.94,0,1,1,8.879-8.94A8.919,8.919,0,0,1,623.482,1851.07Zm-38.041-77.35a8.924,8.924,0,0,1-8.8-7.74,9.184,9.184,0,0,1-.079-1.2A8.88,8.88,0,1,1,585.441,1773.72Zm-29.732,68.41a8.879,8.879,0,1,1-8.879-8.94A8.919,8.919,0,0,1,555.709,1842.13Z" transform="translate(-527.156 -1748)"/>
  <path id="形状_526_拷贝" data-name="形状 526 拷贝" class="cls-2" d="M633.951,1829.08a51.733,51.733,0,0,0-18.852-58.71,50.609,50.609,0,0,0-13.021-6.73,16.667,16.667,0,0,0-33.27,0,50.714,50.714,0,0,0-12.747,6.53,51.858,51.858,0,0,0-19.246,58.55,16.8,16.8,0,0,0,10.014,30.19,16.6,16.6,0,0,0,10.232-3.54,50.969,50.969,0,0,0,56.453.2,16.558,16.558,0,0,0,9.949,3.34A16.795,16.795,0,0,0,633.951,1829.08Zm-10.469,21.99a8.94,8.94,0,1,1,8.879-8.94A8.919,8.919,0,0,1,623.482,1851.07Zm-38.041-77.35a8.924,8.924,0,0,1-8.8-7.74,9.184,9.184,0,0,1-.079-1.2A8.88,8.88,0,1,1,585.441,1773.72Zm38.042,51.63a16.792,16.792,0,0,0-14.983,24.14,43.25,43.25,0,0,1-46.557-.28A16.721,16.721,0,0,0,544,1825.59a43.921,43.921,0,0,1,26.155-54.1,16.6,16.6,0,0,0,15.287,10.07h0a16.6,16.6,0,0,0,15.286-10.08,43.234,43.234,0,0,1,28.158,40.95,43.862,43.862,0,0,1-2.036,13.26A16.549,16.549,0,0,0,623.483,1825.35Zm-67.774,16.78a8.879,8.879,0,1,1-8.879-8.94A8.919,8.919,0,0,1,555.709,1842.13Z" transform="translate(-527.156 -1748)"/>
</svg>
