<svg id="ai-c1-pic01" xmlns="http://www.w3.org/2000/svg" width="116" height="116" viewBox="0 0 116 116">
  <defs>
    <style>
      .cls-1 {
        fill: #e1e9ff;
      }

      .cls-1, .cls-2, .cls-3 {
        fill-rule: evenodd;
      }

      .cls-2 {
        fill: #3a5ee2;
      }

      .cls-3 {
        fill: #fff;
      }
    </style>
  </defs>
  <path id="形状_528" data-name="形状 528" class="cls-1" d="M179.516,1533a3.646,3.646,0,0,1,3.132,1.83l17.12,29.52a3.882,3.882,0,0,1-.3,4.33l-51.355,64.93a3.585,3.585,0,0,1-5.661.01l-51.357-64.93a3.9,3.9,0,0,1-.3-4.34l17.12-29.52a3.646,3.646,0,0,1,3.132-1.83h68.477" transform="translate(-87.281 -1526)"/>
  <path id="形状_528_拷贝" data-name="形状 528 拷贝" class="cls-2" d="M179.516,1533a3.646,3.646,0,0,1,3.132,1.83l17.12,29.52a3.882,3.882,0,0,1-.3,4.33l-51.355,64.93a3.585,3.585,0,0,1-5.661.01l-51.357-64.93a3.9,3.9,0,0,1-.3-4.34l17.12-29.52a3.646,3.646,0,0,1,3.132-1.83h68.477m-34.239,92.26,1.59-2.01,44.4-56.14,0.915-1.15-0.744-1.29-13.392-23.08-0.6-1.04H113.108l-0.6,1.04-13.392,23.08-0.744,1.29,0.915,1.15,44.4,56.14,1.59,2.01" transform="translate(-87.281 -1526)"/>
  <path id="形状_528_拷贝_2" data-name="形状 528 拷贝 2" class="cls-3" d="M173.809,1562.51a3.782,3.782,0,0,1,0,7.56H116.745a3.782,3.782,0,0,1,0-7.56h57.064" transform="translate(-87.281 -1526)"/>
</svg>
