<svg id="mz-ui-list01-pic01" xmlns="http://www.w3.org/2000/svg" width="138" height="122" viewBox="0 0 138 122">
  <defs>
    <style>
      .cls-1 {
        fill: #c9f8ec;
      }

      .cls-1, .cls-2, .cls-3 {
        fill-rule: evenodd;
      }

      .cls-2 {
        fill: #14ddab;
      }

      .cls-3 {
        fill: #fff;
      }
    </style>
  </defs>
  <path id="形状_653_拷贝_2" data-name="形状 653 拷贝 2" class="cls-1" d="M209,1610.2c0-22.17-17.5-40.2-39.016-40.2a38.222,38.222,0,0,0-28,12.2,38.243,38.243,0,0,0-27.962-12.16C92.5,1570.04,75,1588.08,75,1610.24a40.654,40.654,0,0,0,10.572,27.5c0.117,0.15.245,0.29,0.378,0.43l0.392,0.4,0.188,0.2,49.371,48.69a8.472,8.472,0,0,0,6.08,2.54,8.562,8.562,0,0,0,6.168-2.62c1.551-1.52,40.456-39.53,49.35-48.68l0.151-.15-0.067.06c0.114-.11.224-0.23,0.335-0.35A40.608,40.608,0,0,0,209,1610.2h0Z" transform="translate(-74.5 -1570)"/>
  <path id="形状_653" data-name="形状 653" class="cls-2" d="M212,1610.87c0-22.54-17.9-40.87-39.89-40.87a39.175,39.175,0,0,0-28.629,12.4,39.183,39.183,0,0,0-28.587-12.35c-22,0-39.89,18.33-39.89,40.86a41.218,41.218,0,0,0,10.809,27.96,5.751,5.751,0,0,0,.387.43l0.4,0.41,0.192,0.2,50.477,49.51a8.779,8.779,0,0,0,12.521-.09c1.586-1.54,41.363-40.19,50.456-49.48,0.051-.05.1-0.11,0.154-0.16l-0.069.06c0.117-.11.23-0.23,0.343-0.35A41.166,41.166,0,0,0,212,1610.87h0Zm-15.868,24.3h0a1.858,1.858,0,0,1-.14.15c0,0.01-.007.01-0.01,0.01-8.991,9.21-50.518,49.55-50.518,49.55a2.752,2.752,0,0,1-3.959,0l-50.38-49.41c-0.069-.07-0.134-0.14-0.2-0.2l-0.4-.41a0.045,0.045,0,0,1,.014-0.01,34.9,34.9,0,0,1-9.4-23.93c0-19.1,15.117-34.59,33.763-34.59a33.555,33.555,0,0,1,28.594,16.2,33.582,33.582,0,0,1,28.622-16.25c18.645,0,33.759,15.49,33.759,34.59a34.9,34.9,0,0,1-9.737,24.3h0Z" transform="translate(-74.5 -1570)"/>
  <path id="形状_653_拷贝" data-name="形状 653 拷贝" class="cls-3" d="M114.948,1584.29c-14.638,0-26.55,12.2-26.55,27.2a3.066,3.066,0,1,0,6.13,0,20.693,20.693,0,0,1,20.419-20.92,3.141,3.141,0,0,0,0-6.28h0Z" transform="translate(-74.5 -1570)"/>
</svg>
