<svg id="mz-ui-list01-pic03" xmlns="http://www.w3.org/2000/svg" width="138" height="122" viewBox="0 0 138 122">
  <defs>
    <style>
      .cls-1 {
        fill: #c9f8ec;
      }

      .cls-2 {
        fill: #14ddab;
        fill-rule: evenodd;
      }
    </style>
  </defs>
  <rect id="矩形_653" data-name="矩形 653" class="cls-1" x="102" y="2" width="23" height="44"/>
  <rect id="矩形_653_拷贝" data-name="矩形 653 拷贝" class="cls-1" x="40" y="76" width="23" height="44"/>
  <path id="形状_655" data-name="形状 655" class="cls-2" d="M187.135,2036.09q4.6,0,9.214.02a9.862,9.862,0,0,0,5.058-1.19c3.933-2.18,5.952-5.41,6-9.6,0.059-6.01.044-12.12,0.029-18.04l0-1.61c-0.006-2.3-.011-4.61-0.011-6.91a12.454,12.454,0,0,0-.112-1.79,11.126,11.126,0,0,0-10.617-9.28q-18.849-.03-37.706-0.02a9.98,9.98,0,0,0-1.876.19,11.156,11.156,0,0,0-8.918,10.95v26.2a10.615,10.615,0,0,0,.11,1.62,11.121,11.121,0,0,0,10.643,9.48c4.5-.04,8.9-0.03,13.3-0.02l5.49,0.01Zm-18.841-5.58c-2.412,0-4.825,0-7.233-.02a7,7,0,0,1-6.615-4.39,7.1,7.1,0,0,1-.666-3.06l0-8.78q0-6.765,0-13.52a7.457,7.457,0,0,1,7.39-7.44q16.656-.03,33.32,0a7.335,7.335,0,0,1,7.345,7.21c0.056,7.55.056,15.21,0,22.77a7.232,7.232,0,0,1-7.3,7.22c-3.728.02-7.443,0.01-11.162,0.01l-5.586-.01ZM92.67,2059.9a8.066,8.066,0,0,0-1.725.19,11.2,11.2,0,0,0-8.814,10.97q-0.016,8.685,0,17.36l0,8.69a10.886,10.886,0,0,0,3.188,7.84,9.985,9.985,0,0,0,7.234,3.35c14.732,0.07,26.952.07,38.461,0a9.987,9.987,0,0,0,7.47-3.58,11.321,11.321,0,0,0,2.941-8.07q-0.025-6.645-.014-13.3v-0.95q0-5.43,0-10.84a14.62,14.62,0,0,0-.147-2.43,11.093,11.093,0,0,0-10.615-9.23c-4.488.04-8.9,0.04-13.308,0.03l-5.526-.01h-5.872Q99.321,2059.935,92.67,2059.9Zm35.656,42.83H95.251a7.454,7.454,0,0,1-7.517-7.54l-0.007-6.95c-0.008-5.06-.015-10.13.024-15.2a7.308,7.308,0,0,1,7.34-7.5c4.191-.03,8.366-0.02,12.556-0.02h4.191c5.415,0,10.851,0,16.268.02a7.383,7.383,0,0,1,6.552,3.39,7.9,7.9,0,0,1,1.187,4.42c0.015,7.17.015,14.37,0,21.54a7.367,7.367,0,0,1-4.411,7.17A7.649,7.649,0,0,1,128.326,2102.73ZM81,2028.35l0.532,0.53q5.72,5.745,11.416,11.49l11.985-12.04h-1.491c-1.628,0-8.142.08-8.142,0.08l-0.052-1.33s0.044-4.11.131-5.07a34.237,34.237,0,0,1,2.737-10.33,32.221,32.221,0,0,1,7.809-10.78,31.892,31.892,0,0,1,9.858-6.19,31.264,31.264,0,0,1,9.16-2.17c-0.007-1.3,0-2.6,0-3.89l0-1.65a35.527,35.527,0,0,0-4.165.52,37.886,37.886,0,0,0-18.588,9.35,38.316,38.316,0,0,0-11.045,17.97c-0.9,3.06-1.487,11.81-1.487,11.81l-0.128,1.7H81Zm84.075,75.15c0.007,1.3,0,2.6,0,3.89l0,1.61a8.5,8.5,0,0,1,1.105-.09c0.236-.01.472-0.02,0.708-0.05a35.211,35.211,0,0,0,12.169-3.66,37.347,37.347,0,0,0,13.2-10.83c5.08-6.62,8.278-18.51,8.5-26.73l-0.752.03H209q-2.555-2.58-5.117-5.14-3.429-3.435-6.845-6.88l-11.969,12.03,9.915-.11h0.133s-0.734,9.09-1.59,12.21a32.143,32.143,0,0,1-10.936,16.64,33.026,33.026,0,0,1-17.4,7.07A0.421,0.421,0,0,1,165.071,2103.5Z" transform="translate(-76 -1987)"/>
</svg>
