<svg id="newai-list-pic01" xmlns="http://www.w3.org/2000/svg" width="60" height="60" viewBox="0 0 60 60">
  <defs>
    <style>
      .cls-1, .cls-2 {
        fill: #e6ebfd;
      }

      .cls-1, .cls-3 {
        fill-rule: evenodd;
      }

      .cls-3 {
        fill: #3a5ee2;
      }
    </style>
  </defs>
  <path id="矩形_666" data-name="矩形 666" class="cls-1" d="M103.289,9170.29H129a3,3,0,0,1,3,3V9193a3,3,0,0,1-3,3H103.289a3,3,0,0,1-3-3v-19.71A3,3,0,0,1,103.289,9170.29Z" transform="translate(-96 -9136)"/>
  <circle id="椭圆_633" data-name="椭圆 633" class="cls-2" cx="18" cy="19.72" r="8.562"/>
  <path id="形状_657" data-name="形状 657" class="cls-3" d="M148.82,9136H121.138a7.32,7.32,0,0,0-7.17,6.94,12.033,12.033,0,1,0,4.022.15,3.262,3.262,0,0,1,3.148-3.01H148.82a3.3,3.3,0,0,1,3.169,3.4v37.31a3.291,3.291,0,0,1-3.169,3.4H135.76v-5.02a8.885,8.885,0,0,0-3.742-7.26l8.547-17.43a2.058,2.058,0,0,0-.9-2.74,2,2,0,0,0-2.695.92l-8.7,17.75a9.8,9.8,0,0,0-1.211-.08h-4.832a2.04,2.04,0,0,0,0,4.08h4.832a4.727,4.727,0,0,1,4.689,4.76v7.99a4.734,4.734,0,0,1-4.689,4.76h-4.832a2.04,2.04,0,0,0,0,4.08h4.832a8.773,8.773,0,0,0,8.639-7.73h13.13a7.343,7.343,0,0,0,7.188-7.48v-37.31a7.35,7.35,0,0,0-7.188-7.48h0Zm-25.272,19.07a8.028,8.028,0,1,1-8.027-8.15,8.092,8.092,0,0,1,8.027,8.15h0ZM104.7,9174.41H108.9a2.04,2.04,0,0,0,0-4.08H104.7A8.782,8.782,0,0,0,96,9179.17v7.99A8.788,8.788,0,0,0,104.7,9196H108.9a2.04,2.04,0,0,0,0-4.08H104.7a4.734,4.734,0,0,1-4.689-4.76v-7.99a4.727,4.727,0,0,1,4.689-4.76h0Z" transform="translate(-96 -9136)"/>
</svg>
