<svg id="newai-list-pic03" xmlns="http://www.w3.org/2000/svg" width="60" height="60" viewBox="0 0 60 60">
  <defs>
    <style>
      .cls-1 {
        fill: #e6ebfd;
      }

      .cls-1, .cls-2 {
        fill-rule: evenodd;
      }

      .cls-2 {
        fill: #3a5ee2;
      }
    </style>
  </defs>
  <path id="形状_659" data-name="形状 659" class="cls-1" d="M134.033,9565.03H114.415a8.341,8.341,0,0,1-8.415-8.25V9545.4a8.487,8.487,0,0,1,8.415-8.4H125.8a8.322,8.322,0,0,1,8.233,8.4v19.63h0Zm23.7,0H137.967V9545.4a8.447,8.447,0,0,1,8.377-8.4h11.385a8.344,8.344,0,0,1,8.271,8.4v11.38a8.22,8.22,0,0,1-8.271,8.25h0ZM125.8,9597H114.415a8.361,8.361,0,0,1-8.415-8.29v-11.38a8.435,8.435,0,0,1,8.415-8.36h19.618v19.74a8.244,8.244,0,0,1-2.393,5.86,8.135,8.135,0,0,1-5.84,2.43h0Zm31.929,0H146.344a8.334,8.334,0,0,1-8.377-8.29v-19.74h19.762a8.316,8.316,0,0,1,8.271,8.36v11.38a8.242,8.242,0,0,1-8.271,8.29h0Zm-15.547-23.82v15.53a4.092,4.092,0,0,0,4.162,4.07h11.385a3.99,3.99,0,0,0,4.048-4.07v-11.38a4.081,4.081,0,0,0-4.048-4.15H142.182Z" transform="translate(-106 -9537)"/>
  <path id="形状_659_拷贝" data-name="形状 659 拷贝" class="cls-2" d="M134.033,9565.03H114.415a8.341,8.341,0,0,1-8.415-8.25V9545.4a8.487,8.487,0,0,1,8.415-8.4H125.8a8.322,8.322,0,0,1,8.233,8.4v19.63h0Zm-19.618-23.81a4.232,4.232,0,0,0-4.2,4.19v11.38a4.153,4.153,0,0,0,4.2,4.1h15.471V9545.4a4.146,4.146,0,0,0-4.086-4.19H114.415v0.01h0Zm43.314,23.81H137.967V9545.4a8.447,8.447,0,0,1,8.377-8.4h11.385a8.344,8.344,0,0,1,8.271,8.4v11.38a8.22,8.22,0,0,1-8.271,8.25h0Zm-15.547-4.15h15.547a4.022,4.022,0,0,0,4.048-4.1V9545.4a4.109,4.109,0,0,0-4.048-4.19H146.344a4.205,4.205,0,0,0-4.162,4.19v15.48h0ZM125.8,9597H114.415a8.361,8.361,0,0,1-8.415-8.29v-11.38a8.435,8.435,0,0,1,8.415-8.36h19.618v19.74a8.244,8.244,0,0,1-2.393,5.86,8.135,8.135,0,0,1-5.84,2.43h0Zm-11.385-23.82a4.211,4.211,0,0,0-4.2,4.15v11.38a4.115,4.115,0,0,0,4.2,4.07H125.8a4.032,4.032,0,0,0,4.086-4.07v-15.53H114.415ZM157.729,9597H146.344a8.334,8.334,0,0,1-8.377-8.29v-19.74h19.762a8.316,8.316,0,0,1,8.271,8.36v11.38a8.242,8.242,0,0,1-8.271,8.29h0Zm-15.547-23.82v15.53a4.092,4.092,0,0,0,4.162,4.07h11.385a3.99,3.99,0,0,0,4.048-4.07v-11.38a4.081,4.081,0,0,0-4.048-4.15H142.182Z" transform="translate(-106 -9537)"/>
</svg>
