<svg xmlns="http://www.w3.org/2000/svg" xmlns:xlink="http://www.w3.org/1999/xlink" width="118" height="218" viewBox="0 0 118 218">
  <defs>
    <style>
      .cls-1 {
        filter: url(#filter);
      }

      .cls-2 {
        fill: #aeaeae;
        fill-rule: evenodd;
      }

      .cls-3 {
        font-size: 25.42px;
        opacity: 0.05;
        fill: #333;
        text-anchor: middle;
        font-family: "PingFang SC";
        font-weight: 600;
      }
    </style>
    <filter id="filter" filterUnits="userSpaceOnUse">
      <feFlood result="flood" flood-color="#22a0f6"/>
      <feComposite result="composite" operator="in" in2="SourceGraphic"/>
      <feBlend result="blend" in2="SourceGraphic"/>
    </filter>
  </defs>
  <g id="python-c1-pic04" class="cls-1">
    <path id="形状_652" data-name="形状 652" class="cls-2" d="M669.82,2255.97c-2.608,0-4.838-1.11-7.456-3.72a11.629,11.629,0,0,1-2.962-7.43v-86.47a11.732,11.732,0,0,1,11.758-11.71h45.434a9.559,9.559,0,0,1,6.774,2.82l28.446,28.67a5.168,5.168,0,0,1,1.419,2.66v7.5a3.546,3.546,0,0,1-3.429,3.57,3.374,3.374,0,0,1-.834-0.11,3,3,0,0,1-2.213-3.1v-1.2a4.278,4.278,0,0,0-4.29-4.27H727.822c-2.608,0-4.838-1.12-7.457-3.72a8,8,0,0,1-2.186-5.82v-19.49a0.988,0.988,0,0,0-.99-0.99l-44.2-.11a7.014,7.014,0,0,0-7.042,7v84.77a3.643,3.643,0,0,0,.98,2.88,3.681,3.681,0,0,0,2.891.98h73.066a3.681,3.681,0,0,0,2.891-.98,3.643,3.643,0,0,0,.98-2.88v-2.38a3.032,3.032,0,0,1,3.238-3.23,3.744,3.744,0,0,1,2.9,1.53,7.214,7.214,0,0,1,.447,2.16,1.284,1.284,0,0,1,0,.13l-0.058,6.51a6.5,6.5,0,0,1-6.509,6.43H669.82Zm59.655-76.86h7.144a3.284,3.284,0,0,0,2.333-5.61l-13.272-13.23a1.966,1.966,0,0,0-3.349,1.39l0.172,10.61A6.959,6.959,0,0,0,729.475,2179.11Zm5.166,51.21a3.293,3.293,0,0,1-2.379-1l-16.683-16.62a3.821,3.821,0,0,1-.885-1.49,3.007,3.007,0,0,1,3.071-4.06h0a3.257,3.257,0,0,1,2.38,1l11.679,11.63a3.3,3.3,0,0,0,4.667,0l25.65-25.55a3.051,3.051,0,0,1,.593-0.47,5.307,5.307,0,0,1,2.686-.85,3.293,3.293,0,0,1,2.379,1c1.371,1.43,1.2,4.13.774,4.55L737.92,2229a3.075,3.075,0,0,1-.592.47A5.316,5.316,0,0,1,734.641,2230.32Z" transform="translate(-658.703 -2038.485)"/>
    <text id="_4" data-name="4" class="cls-3" transform="translate(64.73 134.598) scale(7.425 7.416)">4</text>
  </g>
</svg>
