<svg id="c2-artificial-intelligencen-pic03" xmlns="http://www.w3.org/2000/svg" width="184" height="184" viewBox="0 0 184 184">
  <defs>
    <style>
      .cls-1, .cls-4 {
        fill: #fff;
      }

      .cls-1 {
        stroke: #acbcf8;
        stroke-width: 4px;
        opacity: 0.3;
      }

      .cls-1, .cls-2, .cls-3, .cls-4 {
        fill-rule: evenodd;
      }

      .cls-2 {
        fill: #e6ebfd;
      }

      .cls-3 {
        fill: #3a5ee2;
      }
    </style>
  </defs>
  <path id="椭圆_3" data-name="椭圆 3" class="cls-1" d="M1112.42,1707c49.41,0,89.46,40.29,89.46,90s-40.05,90-89.46,90-89.45-40.29-89.45-90S1063.02,1707,1112.42,1707Z" transform="translate(-1020.425 -1705)"/>
  <g id="组_87" data-name="组 87">
    <path id="形状_517" data-name="形状 517" class="cls-2" d="M1093.96,1794.24a5.664,5.664,0,0,1,4.97.89,5.421,5.421,0,0,1,1.53,1.77l0.06,0.27,0.09-.01a5.683,5.683,0,0,1,.58,2.48,5.5,5.5,0,0,1-1.6,3.93l-0.48.5,2.51,2.46,0.48-.49a9.12,9.12,0,0,0,1.77-10.21,7.106,7.106,0,0,0,2.95-5.69,7.014,7.014,0,0,0-2.82-5.63l-0.55-.41-2.1,2.82,0.55,0.41a3.5,3.5,0,0,1-.08,5.66,9.04,9.04,0,0,0-6.25-2.5h-0.01a9.19,9.19,0,0,0-2.6.38l-0.65.2,1,3.37Zm18.81,19.08-0.16-.08v-41.1l-0.08-1.75c-0.75-5.06-4.69-8.39-10.11-8.39a10.735,10.735,0,0,0-10.64,9.53,11.218,11.218,0,0,0-9.67,15.72,10.19,10.19,0,0,0,1.92,17.48,10.752,10.752,0,0,0,5.6,16.19,11.79,11.79,0,0,0,11.74,11.08,11.459,11.459,0,0,0,10.81-8.72h0.43v-2.49c0.01-.11.03-0.22,0.04-0.33l0.03-.68h-0.07v-6.18Zm12.77-34.36a6.12,6.12,0,1,0-5.94-7.5h-4.07v3.52h4.31A6.1,6.1,0,0,0,1125.54,1778.96Zm-2.59-6.13a2.6,2.6,0,1,1,2.59,2.61A2.6,2.6,0,0,1,1122.95,1772.83Zm18.94,23.33a6.1,6.1,0,0,0-4.19,10.55l-2.23,4.46h-19.94v3.52h22.16l-0.41-.33,0.41,0.33,3.15-6.4a6.027,6.027,0,0,0,1.05.11A6.12,6.12,0,0,0,1141.89,1796.16Zm2.59,6.11a2.6,2.6,0,1,1-2.59-2.6A2.6,2.6,0,0,1,1144.48,1802.27Zm-18.94,6.13a6.12,6.12,0,1,0-5.8-7.96h-4.21v3.52h4.16A6.119,6.119,0,0,0,1125.54,1808.4Zm-2.59-6.13a2.6,2.6,0,1,1,2.59,2.61A2.6,2.6,0,0,1,1122.95,1802.27Zm9.13,15.69a6.123,6.123,0,0,0-5.7,3.95h-10.85v3.51h10.59A6.115,6.115,0,1,0,1132.08,1817.96Zm2.6,6.12a2.6,2.6,0,1,1-2.6-2.6A2.6,2.6,0,0,1,1134.68,1824.08Zm-10.27-30.15v0.37l5.25-8.59h4.29a6.1,6.1,0,1,0-.14-3.52l-6.12.04,0.71,0.44-0.71-.44-5.35,8.55h-6.81v3.52h8.88v-0.37Zm12.7-10.19a2.6,2.6,0,1,1,2.6,2.6A2.595,2.595,0,0,1,1137.11,1783.74Z" transform="translate(-1020.425 -1705)"/>
    <path id="形状_517_拷贝" data-name="形状 517 拷贝" class="cls-3" d="M1112.77,1813.32l-0.16-.08v-41.1l-0.08-1.75c-0.75-5.06-4.69-8.39-10.11-8.39a10.735,10.735,0,0,0-10.64,9.53,11.218,11.218,0,0,0-9.67,15.72,10.19,10.19,0,0,0,1.92,17.48,10.752,10.752,0,0,0,5.6,16.19,11.79,11.79,0,0,0,11.74,11.08,11.459,11.459,0,0,0,10.81-8.72h0.43v-2.49c0.01-.11.03-0.22,0.04-0.33l0.03-.68h-0.07v-6.18Zm-27.03-2.6a7.182,7.182,0,0,1,5.93-7.1l0.67-.12-0.62-3.47-0.67.12a10.7,10.7,0,0,0-4.3,1.8l-0.23-.06a6.68,6.68,0,0,1-2.52-11.66l0.03,0.03h0l0.46,0.51,0.02-.02a11.343,11.343,0,0,0,2.9,2.09l0.61,0.3,1.57-3.15-0.61-.3a7.782,7.782,0,0,1-2.33-1.77v-0.01a7.728,7.728,0,0,1,5.32-12.87,10.661,10.661,0,0,0,2.29,4.64l0.44,0.52,2.68-2.28-0.45-.52a7.216,7.216,0,0,1,5.49-11.88c3.77,0,6.36,2.3,6.68,5.88v8.48a6.163,6.163,0,0,1-5.32-4.86l-0.14-.68-3.44.7,0.13,0.68a9.691,9.691,0,0,0,8.77,7.68v29.29c-1.17,2.03-2.46,3-4.16,3.11l-0.68.05,0.23,3.51,0.68-.04a7.619,7.619,0,0,0,3.93-1.37v2.72c-0.4,4.48-3.66,7.81-7.73,7.81a8.266,8.266,0,0,1-.44-16.52l0.69-.04-0.19-3.51-0.68.03a11.762,11.762,0,0,0-10.77,8.83A7.16,7.16,0,0,1,1085.74,1810.72Zm39.8-31.76a6.12,6.12,0,1,0-5.94-7.5h-4.07v3.52h4.31A6.1,6.1,0,0,0,1125.54,1778.96Zm-2.59-6.13a2.6,2.6,0,1,1,2.59,2.61A2.6,2.6,0,0,1,1122.95,1772.83Zm18.94,23.33a6.1,6.1,0,0,0-4.19,10.55l-2.23,4.46h-19.94v3.52h22.16l-0.41-.33,0.41,0.33,3.15-6.4a6.027,6.027,0,0,0,1.05.11A6.12,6.12,0,0,0,1141.89,1796.16Zm2.59,6.11a2.6,2.6,0,1,1-2.59-2.6A2.6,2.6,0,0,1,1144.48,1802.27Zm-18.94,6.13a6.12,6.12,0,1,0-5.8-7.96h-4.21v3.52h4.16A6.119,6.119,0,0,0,1125.54,1808.4Zm-2.59-6.13a2.6,2.6,0,1,1,2.59,2.61A2.6,2.6,0,0,1,1122.95,1802.27Zm9.13,15.69a6.123,6.123,0,0,0-5.7,3.95h-10.85v3.51h10.59A6.115,6.115,0,1,0,1132.08,1817.96Zm2.6,6.12a2.6,2.6,0,1,1-2.6-2.6A2.6,2.6,0,0,1,1134.68,1824.08Zm-10.27-30.15v0.37l5.25-8.59h4.29a6.1,6.1,0,1,0-.14-3.52l-6.12.04,0.71,0.44-0.71-.44-5.35,8.55h-6.81v3.52h8.88v-0.37Zm12.7-10.19a2.6,2.6,0,1,1,2.6,2.6A2.595,2.595,0,0,1,1137.11,1783.74Z" transform="translate(-1020.425 -1705)"/>
    <path id="形状_517_拷贝_2" data-name="形状 517 拷贝 2" class="cls-4" d="M1093.96,1794.24a5.664,5.664,0,0,1,4.97.89,5.421,5.421,0,0,1,1.53,1.77l0.06,0.27,0.09-.01a5.683,5.683,0,0,1,.58,2.48,5.5,5.5,0,0,1-1.6,3.93l-0.48.5,2.51,2.46,0.48-.49a9.12,9.12,0,0,0,1.77-10.21,7.106,7.106,0,0,0,2.95-5.69,7.014,7.014,0,0,0-2.82-5.63l-0.55-.41-2.1,2.82,0.55,0.41a3.5,3.5,0,0,1-.08,5.66,9.04,9.04,0,0,0-6.25-2.5h-0.01a9.19,9.19,0,0,0-2.6.38l-0.65.2,1,3.37Z" transform="translate(-1020.425 -1705)"/>
  </g>
</svg>
