<svg id="internet-operation-c1-pic01" xmlns="http://www.w3.org/2000/svg" width="130" height="130" viewBox="0 0 130 130">
  <metadata><?xpacket begin="﻿" id="W5M0MpCehiHzreSzNTczkc9d"?>
<x:xmpmeta xmlns:x="adobe:ns:meta/" x:xmptk="Adobe XMP Core 5.6-c111 79.158325, 2015/09/10-01:10:20        ">
   <rdf:RDF xmlns:rdf="http://www.w3.org/1999/02/22-rdf-syntax-ns#">
      <rdf:Description rdf:about=""
            xmlns:xmp="http://ns.adobe.com/xap/1.0/">
         <xmp:CreatorTool>Adobe Photoshop CC 2017 (Windows)</xmp:CreatorTool>
      </rdf:Description>
   </rdf:RDF>
</x:xmpmeta>
                                                                                                    
                                                                                                    
                                                                                                    
                                                                                                    
                                                                                                    
                                                                                                    
                                                                                                    
                                                                                                    
                                                                                                    
                                                                                                    
                                                                                                    
                                                                                                    
                                                                                                    
                                                                                                    
                                                                                                    
                                                                                                    
                                                                                                    
                                                                                                    
                                                                                                    
                                                                                                    
                           
<?xpacket end="w"?></metadata>
<defs>
    <style>
      .cls-1 {
        fill: #dbe5ff;
      }

      .cls-1, .cls-2, .cls-3 {
        fill-rule: evenodd;
      }

      .cls-2 {
        fill: #3167f4;
      }

      .cls-3 {
        fill: #fff;
      }
    </style>
  </defs>
  <path id="形状_617" data-name="形状 617" class="cls-1" d="M576.685,1074.02H544.168a4.519,4.519,0,0,1-4.507-4.52v-5.11a42.292,42.292,0,1,1,41.534.08v5.03a4.522,4.522,0,0,1-4.51,4.52h0Z" transform="translate(-495.5 -962)"/>
  <path id="形状_617_拷贝_2" data-name="形状 617 拷贝 2" class="cls-2" d="M576.685,1074.02H544.168a4.519,4.519,0,0,1-4.507-4.52v-5.11a42.292,42.292,0,1,1,41.534.08v5.03a4.522,4.522,0,0,1-4.51,4.52h0Zm-30.974-6.06h29.433v-5.31a3.037,3.037,0,0,1,1.662-2.71,36.243,36.243,0,1,0-32.745-.06,3.037,3.037,0,0,1,1.65,2.7v5.38h0ZM575.093,1087H544.969a3.035,3.035,0,0,1,0-6.07h30.124a3.035,3.035,0,0,1,0,6.07h0Zm-65.107-53.29h-7.967a3.035,3.035,0,0,1,0-6.07h7.967a3.035,3.035,0,0,1,0,6.07h0Zm12.571-36.732a3,3,0,0,1-2.139-.889l-5.635-5.651a3.029,3.029,0,1,1,4.278-4.288l5.635,5.65a3.033,3.033,0,0,1-2.139,5.178h0Zm71.429-4.457a3.033,3.033,0,0,1-2.139-5.178l5.634-5.651a3.029,3.029,0,1,1,4.278,4.289l-5.634,5.651a3.008,3.008,0,0,1-2.139.889h0ZM562.17,980.167a3.022,3.022,0,0,1-5.163-2.144l0-7.99a3.025,3.025,0,1,1,6.049,0l0,7.99a3.023,3.023,0,0,1-.886,2.144h0ZM611,1027.41a3.035,3.035,0,0,1,0-6.07h7.97a3.03,3.03,0,0,1,0,6.06l-7.97.01h0Z" transform="translate(-495.5 -962)"/>
  <path id="形状_617_拷贝" data-name="形状 617 拷贝" class="cls-3" d="M579.878,1014.94a3.031,3.031,0,0,1-2.359-1.13,21.925,21.925,0,0,0-15.3-8.12,3.029,3.029,0,0,1-2.78-3.26,3,3,0,0,1,3.252-2.785A27.984,27.984,0,0,1,582.232,1010a3.034,3.034,0,0,1-2.354,4.94h0Zm4.809,9.84a3.03,3.03,0,0,1-2.939-2.33,22.454,22.454,0,0,0-.7-2.36,3.024,3.024,0,1,1,5.691-2.05,28.448,28.448,0,0,1,.894,3,3.029,3.029,0,0,1-2.241,3.65,2.858,2.858,0,0,1-.705.09h0Z" transform="translate(-495.5 -962)"/>
</svg>
